<svg width="185" height="187" fill="none" xmlns="http://www.w3.org/2000/svg"><path d="M182.774 74.905c2.423 14.012-12.443 10.28-12.443 10.28-6.221-17.548-16.175-15.911-16.175-15.911 7.793 5.696 8.382 10.541 8.382 10.541-20.759-14.732-48.984-2.88-59.724 2.685-6.024-8.512-18.205-27.566-13.883-36.208 5.697-11.328 17.289-4.846 17.289-4.846 23.444-.392 22.134-8.773 22.134-8.773-6.221 4.845-24.557 0-24.557 0 15.913 0 22.658-6.483 22.658-6.483-11.853 2.947-25.081-9.69-25.081-9.69C96.528-8.315 74.131 2.226 74.131 2.226c14.014-2.422 10.281 12.44 10.281 12.44C66.862 20.887 68.5 30.84 68.5 30.84c5.698-7.791 10.544-8.38 10.544-8.38-16.045 22.589-.59 54.017 3.994 62.202-8.382 5.827-28.028 18.66-36.869 14.208-11.329-5.696-4.846-17.286-4.846-17.286-.262-23.44-8.644-22.13-8.644-22.13 4.846 6.22 0 24.553 0 24.553 0-15.91-6.483-22.655-6.483-22.655 2.947 11.851-9.692 25.078-9.692 25.078-24.82 4.845-14.276 27.238-14.276 27.238-2.423-14.012 12.442-10.28 12.442-10.28 6.221 17.548 16.175 15.911 16.175 15.911-7.793-5.697-8.382-10.542-8.382-10.542 21.938 15.583 52.258 1.44 61.427-3.536 6.155 8.84 17.616 27.042 13.359 35.488-5.698 11.328-17.289 4.846-17.289 4.846-23.444.261-22.134 8.642-22.134 8.642 6.221-4.845 24.557 0 24.557 0-15.913 0-22.658 6.483-22.658 6.483 11.853-2.947 25.081 9.69 25.081 9.69 4.846 24.816 27.243 14.274 27.243 14.274-14.014 2.422-10.282-12.441-10.282-12.441 17.551-6.22 15.914-16.172 15.914-16.172-5.698 7.791-10.544 8.381-10.544 8.381 15.717-22.066 1.245-52.643-3.667-61.613 8.906-6.22 26.915-17.352 35.232-13.161 11.329 5.696 4.846 17.286 4.846 17.286.262 23.44 8.644 22.131 8.644 22.131-4.846-6.221 0-24.554 0-24.554 0 15.911 6.483 22.655 6.483 22.655-2.946-11.851 9.692-25.078 9.692-25.078 24.951-4.78 14.408-27.172 14.408-27.172z" fill="url(#paint0_linear_13_48)"/><defs><linearGradient id="paint0_linear_13_48" x1="92.494" y1=".002" x2="92.494" y2="186.867" gradientUnits="userSpaceOnUse"><stop stop-color="#C0B7E8"/><stop offset="1" stop-color="#8176AF"/></linearGradient></defs></svg>