<svg width="193" height="103" fill="none" xmlns="http://www.w3.org/2000/svg"><g clip-path="url(#clip0_206_37)"><path d="M100.772 41.258c1.336 7.718-6.86 5.662-6.86 5.662-3.43-9.665-8.918-8.764-8.918-8.764 4.297 3.138 4.622 5.807 4.622 5.807-11.446-8.115-27.008-1.587-32.93 1.478-3.321-4.688-10.037-15.183-7.654-19.943 3.142-6.24 9.532-2.67 9.532-2.67 12.926-.215 12.204-4.832 12.204-4.832-3.43 2.669-13.54 0-13.54 0 8.774 0 12.493-3.57 12.493-3.57-6.535 1.623-13.829-5.338-13.829-5.338-2.671-13.668-15.02-7.862-15.02-7.862C48.6-.108 46.541 8.08 46.541 8.08c-9.676 3.426-8.774 8.907-8.774 8.907 3.141-4.291 5.813-4.616 5.813-4.616-8.846 12.442-.325 29.753 2.203 34.261-4.622 3.21-15.454 10.279-20.328 7.826-6.246-3.137-2.672-9.52-2.672-9.52-.144-12.912-4.766-12.19-4.766-12.19 2.672 3.426 0 13.524 0 13.524 0-8.764-3.574-12.479-3.574-12.479 1.624 6.528-5.344 13.813-5.344 13.813-13.684 2.669-7.871 15.003-7.871 15.003-1.336-7.718 6.86-5.662 6.86-5.662 3.43 9.665 8.918 8.764 8.918 8.764-4.296-3.138-4.622-5.807-4.622-5.807 12.096 8.583 28.813.794 33.868-1.947 3.394 4.868 9.713 14.894 7.366 19.546-3.141 6.24-9.532 2.67-9.532 2.67-12.926.144-12.204 4.76-12.204 4.76 3.43-2.669 13.54 0 13.54 0-8.774 0-12.493 3.57-12.493 3.57 6.535-1.623 13.829 5.338 13.829 5.338 2.671 13.668 15.02 7.862 15.02 7.862-7.727 1.334-5.669-6.852-5.669-6.852 9.677-3.427 8.774-8.908 8.774-8.908-3.141 4.291-5.813 4.616-5.813 4.616 8.665-12.154.686-28.996-2.022-33.937 4.91-3.426 14.84-9.557 19.425-7.249 6.246 3.138 2.672 9.521 2.672 9.521.144 12.911 4.766 12.19 4.766 12.19-2.672-3.426 0-13.524 0-13.524 0 8.764 3.574 12.478 3.574 12.478-1.624-6.528 5.344-13.813 5.344-13.813 13.757-2.632 7.943-14.966 7.943-14.966z" fill="url(#paint0_linear_206_37)"/></g><g clip-path="url(#clip1_206_37)"><path d="M117 29h2.321v27.405h6.93V29h2.321v46h-2.321V58.713h-6.93V75H117V29z" fill="url(#paint1_linear_206_37)"/><path d="M145.733 29l-5.753 29.713V75h-2.321V58.713L131.873 29h2.125l4.838 24.772L143.641 29h2.092z" fill="url(#paint2_linear_206_37)"/><path d="M155.997 75h-6.963V29h6.93c2.583 0 4.609 2.048 4.609 4.584v36.8c.033 2.503-2.026 4.616-4.576 4.616zm-4.642-43.692v41.384h4.609c1.242 0 2.321-1.04 2.321-2.308v-36.8c0-1.236-1.046-2.308-2.321-2.308h-4.609v.032z" fill="url(#paint3_linear_206_37)"/><path d="M175.806 75h-2.386l-4.086-16.287h-2.779V75h-2.321V29h6.93c2.583 0 4.609 2.048 4.609 4.584v20.513c0 2.308-1.798 4.258-4.086 4.518L175.806 75zm-9.251-18.595h4.609c1.242 0 2.321-1.04 2.321-2.308V33.584c0-1.236-1.046-2.308-2.321-2.308h-4.609v25.129z" fill="url(#paint4_linear_206_37)"/><path d="M182.801 58.713L181.2 75h-2.092l4.641-46h4.609l4.609 46h-2.092l-1.601-16.287h-6.473zm3.694-27.405h-.915l-2.517 25.097h5.949l-2.517-25.097z" fill="url(#paint5_linear_206_37)"/></g><defs><linearGradient id="paint0_linear_206_37" x1="50.997" y1=".001" x2="50.997" y2="102.927" gradientUnits="userSpaceOnUse"><stop stop-color="#C0B7E8"/><stop offset="1" stop-color="#8176AF"/></linearGradient><linearGradient id="paint1_linear_206_37" x1="122.786" y1="29" x2="122.786" y2="75" gradientUnits="userSpaceOnUse"><stop stop-color="#C0B7E8"/><stop offset="1" stop-color="#8176AF"/></linearGradient><linearGradient id="paint2_linear_206_37" x1="138.803" y1="29" x2="138.803" y2="75" gradientUnits="userSpaceOnUse"><stop stop-color="#C0B7E8"/><stop offset="1" stop-color="#8176AF"/></linearGradient><linearGradient id="paint3_linear_206_37" x1="154.804" y1="29" x2="154.804" y2="75" gradientUnits="userSpaceOnUse"><stop stop-color="#C0B7E8"/><stop offset="1" stop-color="#8176AF"/></linearGradient><linearGradient id="paint4_linear_206_37" x1="170.02" y1="29" x2="170.02" y2="75" gradientUnits="userSpaceOnUse"><stop stop-color="#C0B7E8"/><stop offset="1" stop-color="#8176AF"/></linearGradient><linearGradient id="paint5_linear_206_37" x1="186.037" y1="29" x2="186.037" y2="75" gradientUnits="userSpaceOnUse"><stop stop-color="#C0B7E8"/><stop offset="1" stop-color="#8176AF"/></linearGradient><clipPath id="clip0_206_37"><path fill="#fff" d="M0 0h102v103H0z"/></clipPath><clipPath id="clip1_206_37"><path fill="#fff" transform="translate(117 29)" d="M0 0h76v46H0z"/></clipPath></defs></svg>