<svg width="51" height="51" fill="none" xmlns="http://www.w3.org/2000/svg"><path d="M31.646 11.98c1.812.353 3.61 1.152 4.916 2.457 1.306 1.306 2.105 3.105 2.459 4.917M32.875 3.375c3.765.418 7.153 2.24 9.833 4.917 2.68 2.677 4.494 6.069 4.917 9.833m-.001 18.38v6.662c.01 2.546-2.28 4.672-4.85 4.44-22.19.018-39.399-17.35-39.381-39.391-.232-2.557 1.884-4.838 4.427-4.84h6.675a4.455 4.455 0 012.945 1.073c2.328 1.998 3.825 8.778 3.249 11.474-.45 2.105-2.572 3.577-4.014 5.016a35.563 35.563 0 0013.35 13.323c1.442-1.439 2.917-3.556 5.026-4.005 2.705-.576 9.53.923 11.52 3.267a4.436 4.436 0 011.053 2.981z" stroke="#C0B7E8" stroke-width="6" stroke-linecap="round" stroke-linejoin="round"/></svg>